<svg xmlns="http://www.w3.org/2000/svg" viewBox="0 0 240 240" role="img" aria-labelledby="title desc">
  <title id="title">Anna Kowalska portrait</title>
  <desc id="desc">A warm editorial portrait illustration for kuchniatwist.</desc>
  <defs>
    <linearGradient id="bg" x1="0%" y1="0%" x2="100%" y2="100%">
      <stop offset="0%" stop-color="#fff7ef"/>
      <stop offset="100%" stop-color="#f0d9c7"/>
    </linearGradient>
    <linearGradient id="hair" x1="0%" y1="0%" x2="100%" y2="100%">
      <stop offset="0%" stop-color="#6b4028"/>
      <stop offset="100%" stop-color="#3a2217"/>
    </linearGradient>
    <linearGradient id="shirt" x1="0%" y1="0%" x2="100%" y2="100%">
      <stop offset="0%" stop-color="#c86a35"/>
      <stop offset="100%" stop-color="#8f4322"/>
    </linearGradient>
  </defs>
  <rect width="240" height="240" rx="56" fill="url(#bg)"/>
  <circle cx="120" cy="92" r="54" fill="url(#hair)"/>
  <path d="M72 202c7-33 31-52 48-52s41 19 48 52" fill="url(#shirt)"/>
  <path d="M82 102c0-28 17-47 38-47s38 19 38 47-17 48-38 48-38-20-38-48Z" fill="#f6d3bc"/>
  <path d="M92 87c6-22 23-35 44-35 14 0 26 5 35 15-5-28-25-46-51-46-31 0-54 26-54 58 0 12 3 23 9 32 3-8 8-16 17-24Z" fill="url(#hair)"/>
  <path d="M103 97c4 3 10 5 17 5 7 0 13-2 17-5" fill="none" stroke="#d7a688" stroke-linecap="round" stroke-width="4"/>
  <path d="M106 120c4 5 9 7 14 7 5 0 10-2 14-7" fill="none" stroke="#9a5e4c" stroke-linecap="round" stroke-width="4"/>
  <circle cx="104" cy="101" r="4" fill="#3b251a"/>
  <circle cx="136" cy="101" r="4" fill="#3b251a"/>
  <path d="M98 178c8 7 15 10 22 10 8 0 15-3 22-10" fill="none" stroke="#f4e4d8" stroke-linecap="round" stroke-width="5"/>
  <rect x="20" y="20" width="200" height="200" rx="44" fill="none" stroke="rgba(107,64,40,.12)" stroke-width="2"/>
</svg>
