<svg xmlns="http://www.w3.org/2000/svg" viewBox="0 0 1200 900" role="img" aria-labelledby="title desc">
  <title id="title">Food facts artwork</title>
  <desc id="desc">Starter artwork for food fact articles.</desc>
  <rect width="1200" height="900" fill="#f3eadf"/>
  <rect x="126" y="130" width="948" height="640" rx="34" fill="#fff8f1"/>
  <rect x="192" y="220" width="264" height="206" rx="24" fill="#f1e0cf"/>
  <circle cx="324" cy="323" r="66" fill="#b1552e"/>
  <rect x="514" y="220" width="364" height="16" rx="8" fill="#1f140d"/>
  <rect x="514" y="272" width="308" height="10" rx="5" fill="#bc8f70"/>
  <rect x="514" y="308" width="334" height="10" rx="5" fill="#bc8f70"/>
  <rect x="514" y="344" width="282" height="10" rx="5" fill="#bc8f70"/>
  <rect x="514" y="414" width="488" height="10" rx="5" fill="#cda481"/>
  <rect x="514" y="450" width="454" height="10" rx="5" fill="#cda481"/>
  <rect x="514" y="486" width="420" height="10" rx="5" fill="#cda481"/>
  <path d="M232 560h742" stroke="#dbc1a8" stroke-width="2"/>
  <circle cx="302" cy="626" r="74" fill="#d7966a"/>
  <circle cx="508" cy="626" r="74" fill="#b1552e"/>
  <circle cx="714" cy="626" r="74" fill="#efb530"/>
  <text x="160" y="830" font-family="Georgia, 'Times New Roman', serif" font-size="50" font-weight="700" fill="#1f140d">Food Facts</text>
</svg>
